HIERARCHY
ROOT pelvis
{
  OFFSET 0 100 0
  CHANNELS 6 Xposition Yposition Zposition Zrotation Xrotation Yrotation
  JOINT pelvis_right_femur
  {
    OFFSET -10.78128 -3.44521 -0.5502486
    CHANNELS 3 Zrotation Xrotation Yrotation
    JOINT right_femur_tibia
    {
      OFFSET -0.8047443 -44.0398 -0.1307829
      CHANNELS 3 Zrotation Xrotation Yrotation
      JOINT right_tibia_foot
      {
        OFFSET 3.006224 -47.83518 -5
        CHANNELS 3 Zrotation Xrotation Yrotation
        End Site
        {
          OFFSET 0 -5 15
        }
      }
    }
  }
  JOINT pelvis_left_femur
  {
    OFFSET 10.78128 -3.44521 -0.5502486
    CHANNELS 3 Zrotation Xrotation Yrotation
    JOINT left_femur_tibia
    {
      OFFSET 0.8047443 -44.0398 -0.1307829
      CHANNELS 3 Zrotation Xrotation Yrotation
      JOINT left_tibia_foot
      {
        OFFSET -4.370144 -48.10324 -4.275266
        CHANNELS 3 Zrotation Xrotation Yrotation
        End Site
        {
          OFFSET 0 -5 15
        }
      }
    }
  }
  JOINT pelvis_spine1
  {
    OFFSET 0 6.468898 -3.129235
    CHANNELS 3 Zrotation Xrotation Yrotation
    JOINT spine1
    {
      OFFSET 0 23.15396 4.99043
      CHANNELS 3 Zrotation Xrotation Yrotation
      JOINT spine2
      {
        OFFSET 0 20.79997 -5.064912
        CHANNELS 3 Zrotation Xrotation Yrotation
        JOINT neck
        {
          OFFSET 0 14.38658 9.616178
          CHANNELS 3 Zrotation Xrotation Yrotation
          End Site
          {
            OFFSET 0 20 0
          }
        }
      }
      JOINT right_manubrium
      {
        OFFSET -5.722621 16.35077 3.967754
        CHANNELS 3 Zrotation Xrotation Yrotation
        JOINT right_clavicle
        {
          OFFSET -13.16364 1.694482 -4.693211
          CHANNELS 3 Zrotation Xrotation Yrotation
          JOINT right_humerus
          {
            OFFSET -28.5034 -0.3100689 -2.792744
            CHANNELS 3 Zrotation Xrotation Yrotation
            JOINT right_radius
            {
              OFFSET -25.15693 0.02248979 -1.271978
              CHANNELS 3 Zrotation Xrotation Yrotation
              End Site
              {
                OFFSET -15 0 0
              }
            }
          }
        }
      }
      JOINT left_manubrium
      {
        OFFSET 5.722621 16.35077 3.967754
        CHANNELS 3 Zrotation Xrotation Yrotation
        JOINT left_clavicle
        {
          OFFSET 13.16364 1.694482 -4.693211
          CHANNELS 3 Zrotation Xrotation Yrotation
          JOINT left_humerus
          {
            OFFSET 29.39168 -1.063119 -2.237045
            CHANNELS 3 Zrotation Xrotation Yrotation
            JOINT left_radius
            {
              OFFSET 24.59957 -0.9528479 0.9047498
              CHANNELS 3 Zrotation Xrotation Yrotation
              End Site
              {
                OFFSET 15 -0 -0
              }
            }
          }
        }
      }
    }
  }
}
MOTION
Frames: 7
Frame Time: 0.0416666666667
33.29928 101.4929 249.6296 2.137865 -8.488517 -5.123508 -0.5820716 23.74768 8.079922 -0 15.30379 -0 7.524639 -15.17631 0.4906735 -0.7941589 -26.29381 -5.748109 -0 28.01755 -0 -7.585011 -5.897616 20.06845 -1.483961 -0.6720542 10.03087 -1.864795 9.938085 -1.976242 2.50998 21.75689 5.065383 1.754894 -14.6661 7.159041 1.368679 -21.76969 11.59047 79.75645 22.10182 -4.261302 -0 0 27.24455 -25.69373 13.99771 13.68247 4.698334 -14.1002 -2.792087 -93.61537 21.42614 25.84735 0 0 -11.42055 -2.924976 6.926326 16.13839
34.078 100.9547 256.6395 2.299176 -8.416678 -5.286646 -1.448785 23.97277 7.824464 -0 20.91084 -0 8.263102 -13.82146 0.2530955 -1.946217 -24.92532 -6.884921 -0 26.26857 -0 -7.56058 -6.296797 19.58086 -1.774 -1.064792 9.902233 -2.032337 9.520828 -1.92614 2.616138 21.80609 5.040364 1.612775 -14.6665 7.386047 1.282992 -21.49339 11.25183 80.03202 21.85735 -4.099792 -0 0 27.06875 -25.6474 13.83443 13.62932 4.478403 -13.37391 -2.808359 -93.58754 21.76055 26.0686 0 0 -10.31047 -3.186041 6.946621 16.58394
34.86728 100.8799 263.7697 2.547392 -8.522332 -5.153637 -2.281361 23.09365 7.338516 -0 27.4979 -0 8.825842 -11.89577 -0.4113903 -3.308035 -22.26908 -8.046537 -0 25.74972 -0 -7.488564 -6.816816 19.029 -2.171428 -1.462889 9.651461 -2.102399 9.229782 -1.959297 2.698674 21.97108 5.042039 1.4667 -14.5995 7.630124 1.395299 -20.81979 10.92747 80.67213 21.83349 -4.654672 -0 0 25.99867 -25.40358 13.75541 13.34965 4.269222 -12.92575 -2.882139 -93.19212 22.17884 25.60516 0 0 -9.668079 -3.313484 7.046163 16.849
35.63671 101.317 270.8442 2.790572 -8.815975 -4.696622 -2.854129 20.81396 6.607747 -0 34.49583 -0 9.15961 -9.917504 -1.451286 -4.600676 -18.50135 -9.050541 -0 25.73063 -0 -7.359145 -7.561193 18.44541 -2.567752 -1.679753 9.179815 -2.083997 9.051384 -2.093115 2.72115 22.25087 5.086363 1.293395 -14.45592 7.884044 1.657038 -19.88555 10.65852 81.61552 22.01588 -5.761927 -0 0 24.24501 -24.96383 13.75235 12.88947 4.095043 -12.82244 -3.016245 -92.38335 22.66778 24.38582 0 0 -9.581209 -3.269118 7.238503 16.87605
36.36177 102.1917 277.6701 2.939384 -9.263387 -3.956206 -3.01096 16.94903 5.678514 -0 41.12363 -0 9.216899 -8.371837 -2.751999 -5.630366 -13.84877 -9.803916 -0 25.5325 -0 -7.169204 -8.598166 17.83029 -2.856691 -1.572932 8.409086 -1.986205 8.955262 -2.361691 2.663657 22.63034 5.181935 1.078733 -14.23543 8.143715 1.987894 -18.83776 10.46376 82.79603 22.36955 -7.240034 -0 0 22.07549 -24.34039 13.80562 12.30827 3.973954 -13.09741 -3.21626 -91.14687 23.19513 22.38374 0 0 -10.08416 -3.026811 7.529391 16.62993
37.02708 103.3387 284.117 2.981628 -9.733775 -2.991958 -2.823989 11.74093 4.679907 -0 46.28725 -0 8.98046 -7.401253 -4.12363 -6.320363 -8.661159 -10.31744 -0 24.81904 -0 -6.96291 -9.84971 17.1714 -3.012074 -1.199384 7.367742 -1.809336 8.884783 -2.796344 2.558759 23.06956 5.309814 0.8411339 -13.94959 8.408175 2.259052 -17.75745 10.29183 84.14643 22.81908 -8.955633 -0 0 19.77361 -23.57644 13.87591 11.67369 3.947296 -13.68794 -3.470984 -89.56262 23.70726 19.69449 0 0 -11.13943 -2.599087 7.911842 16.11636
37.63075 104.5189 290.1701 2.94949 -10.03726 -1.854104 -2.467259 5.704402 3.758473 -0 48.69193 -0 8.451073 -6.940353 -5.344647 -6.652637 -3.360462 -10.65579 -0 23.47457 -0 -6.809529 -11.156 16.44858 -3.065998 -0.7376052 6.151577 -1.54916 8.767207 -3.421816 2.472691 23.51216 5.430689 0.6197012 -13.61848 8.675185 2.318332 -16.68055 10.05459 85.58845 23.26928 -10.80404 -0 0 17.6209 -22.73318 13.91353 11.05463 4.074784 -14.47709 -3.754614 -87.76981 24.14989 16.49137 0 0 -12.6742 -2.019793 8.372892 15.36097
